HIERARCHY
ROOT Hips
{
	OFFSET 0.000000 0.000000 0.000000
	CHANNELS 6 Xposition Yposition Zposition Zrotation Yrotation Xrotation 
	JOINT LowerBack
	{
		OFFSET 0.000000 0.000000 0.000000
		CHANNELS 3 Zrotation Yrotation Xrotation
		JOINT Spine
		{
			OFFSET 0.028270 2.035590 -0.193380
			CHANNELS 3 Zrotation Yrotation Xrotation
			JOINT Spine1
			{
				OFFSET 0.056720 2.048850 -0.042750
				CHANNELS 3 Zrotation Yrotation Xrotation
				JOINT Neck
				{
					OFFSET 0.000000 0.000000 0.000000
					CHANNELS 3 Zrotation Yrotation Xrotation
					JOINT Neck1
					{
						OFFSET -0.054170 1.746240 0.172020
						CHANNELS 3 Zrotation Yrotation Xrotation
						JOINT Head
						{
							OFFSET 0.104070 1.761360 -0.123970
							CHANNELS 3 Zrotation Yrotation Xrotation
							End Site
							{
								OFFSET 0.000000 0.000000 0.000000
							}
						}
					}
				}
				JOINT LeftShoulder
				{
					OFFSET 0.000000 0.000000 0.000000
					CHANNELS 3 Zrotation Yrotation Xrotation
					JOINT LeftArm
					{
						OFFSET 3.362410 1.200890 -0.311210
						CHANNELS 3 Zrotation Yrotation Xrotation
						JOINT LeftForeArm
						{
							OFFSET 4.983000 -0.000000 -0.000000
							CHANNELS 3 Zrotation Yrotation Xrotation
							JOINT LeftHand
							{
								OFFSET 3.483560 -0.000000 -0.000000
								CHANNELS 3 Zrotation Yrotation Xrotation
								JOINT LeftFingerBase
								{
									OFFSET 0.000000 0.000000 0.000000
									CHANNELS 3 Zrotation Yrotation Xrotation
									JOINT LeftHandIndex1
									{
										OFFSET 0.715260 -0.000000 -0.000000
										CHANNELS 3 Zrotation Yrotation Xrotation
										End Site
										{
											OFFSET 0.000000 0.000000 0.000000
										}
									}
								}
								JOINT LThumb
								{
									OFFSET 0.000000 0.000000 0.000000
									CHANNELS 3 Zrotation Yrotation Xrotation
									End Site
									{
										OFFSET 0.000000 0.000000 0.000000
									}
								}
							}
						}
					}
				}
				JOINT RightShoulder
				{
					OFFSET 0.000000 0.000000 0.000000
					CHANNELS 3 Zrotation Yrotation Xrotation
					JOINT RightArm
					{
						OFFSET -3.136600 1.374050 -0.404650
						CHANNELS 3 Zrotation Yrotation Xrotation
						JOINT RightForeArm
						{
							OFFSET -5.241900 -0.000000 -0.000000
							CHANNELS 3 Zrotation Yrotation Xrotation
							JOINT RightHand
							{
								OFFSET -3.444170 -0.000000 -0.000000
								CHANNELS 3 Zrotation Yrotation Xrotation
								JOINT RightFingerBase
								{
									OFFSET 0.000000 0.000000 0.000000
									CHANNELS 3 Zrotation Yrotation Xrotation
									JOINT RightHandIndex1
									{
										OFFSET -0.622530 -0.000000 -0.000000
										CHANNELS 3 Zrotation Yrotation Xrotation
										End Site
										{
											OFFSET 0.000000 0.000000 0.000000
										}
									}
								}
								JOINT RThumb
								{
									OFFSET 0.000000 0.000000 0.000000
									CHANNELS 3 Zrotation Yrotation Xrotation
									End Site
									{
										OFFSET 0.000000 0.000000 0.000000
									}
								}
							}
						}
					}
				}
			}
		}
	}
}
}
MOTION
Frames: 11
Frame Time: 0.008333
-0.459619 16.596891 -0.607702 161.219608 87.622171 166.429033 -8.875718 1.187100 -1.217290 -2.318279 1.641428 -3.625273 -4.915430 1.484394 -1.525656 7.065760 -4.319753 -7.829053 -1.688071 -0.132554 -0.037011 0.000000 0.000000 0.000000 -9.623943 15.835329 2.437740 -68.333226 42.917638 2.844382 -4.988869 -9.660481 -0.016972 -0.133288 8.053686 -0.002287 -0.110225 -0.158512 -0.000000 0.000000 0.000000 0.000000 0.000000 0.000000 0.000000 5.123125 1.931243 -0.516216 26.893424 51.034105 2.903033 -0.132089 69.411902 -0.013031 0.911676 8.054877 0.079510 -0.150266 -0.547031 0.000000 0.000000 0.000000 0.000000 0.000000 0.000000 0.000000 
-0.340170 16.546173 -0.653257 157.675268 87.611195 162.695481 -8.890809 1.145635 -0.948421 -2.336637 1.602532 -3.604340 -5.005390 1.453416 -1.628995 7.026850 -3.968885 -7.698185 -1.789274 -0.142075 -0.005536 0.000000 0.000000 0.000000 -9.950980 15.331973 2.496879 -68.421918 41.935711 3.957560 -4.924887 -9.650651 -0.017007 -0.269669 8.360315 -0.012997 -0.103857 -0.155364 -0.000000 0.000000 0.000000 0.000000 0.000000 0.000000 0.000000 5.411829 2.373120 -0.459121 28.287207 50.855310 3.036250 -0.120191 69.011515 -0.012558 0.920232 8.021003 0.079760 -0.148768 -0.546804 0.000000 0.000000 0.000000 0.000000 0.000000 0.000000 0.000000 
-0.224959 16.494768 -0.700789 154.587212 87.577539 159.400997 -8.854390 1.100760 -0.652827 -2.343479 1.558410 -3.577667 -5.094889 1.417848 -1.730868 6.978128 -3.573495 -7.553168 -1.900871 -0.152502 0.029038 0.000000 0.000000 0.000000 -10.253141 14.840529 2.570962 -68.514878 40.758713 5.045607 -4.852400 -9.605675 -0.016786 -0.400204 8.592748 -0.023800 -0.097411 -0.150914 -0.000000 0.000000 0.000000 0.000000 0.000000 0.000000 0.000000 5.726010 2.871907 -0.405543 29.734301 50.597394 3.178142 -0.110391 68.608446 -0.012939 0.828647 8.040039 0.072913 -0.145782 -0.547447 0.000000 0.000000 0.000000 0.000000 0.000000 0.000000 0.000000 
-0.113428 16.443447 -0.749932 151.864089 87.525994 156.453677 -8.780455 1.054360 -0.336504 -2.342535 1.511570 -3.545379 -5.185270 1.380063 -1.825686 6.934513 -3.141731 -7.398088 -2.024088 -0.163837 0.065344 0.000000 0.000000 0.000000 -10.511704 14.385045 2.658350 -68.598098 39.359505 6.083792 -4.770550 -9.501663 -0.016236 -0.501356 8.728153 -0.032496 -0.090941 -0.145099 -0.000000 0.000000 0.000000 0.000000 0.000000 0.000000 0.000000 6.089068 3.420500 -0.353663 31.203338 50.254983 3.320532 -0.102064 68.204039 -0.014173 0.644057 8.131566 0.059371 -0.141473 -0.549180 -0.000000 0.000000 0.000000 0.000000 0.000000 0.000000 0.000000 
-0.004938 16.393091 -0.800365 149.453791 87.457453 153.803375 -8.682287 1.008126 -0.005856 -2.337283 1.464270 -3.508115 -5.277619 1.342138 -1.909777 6.907661 -2.680581 -7.236125 -2.159235 -0.176023 0.102304 0.000000 0.000000 0.000000 -10.717326 13.982304 2.756192 -68.654918 37.724619 7.054187 -4.679420 -9.331188 -0.015323 -0.551758 8.752139 -0.036984 -0.084476 -0.137909 -0.000000 0.000000 0.000000 0.000000 0.000000 0.000000 0.000000 6.515472 4.011213 -0.301316 32.678215 49.816135 3.453036 -0.093917 67.800956 -0.016135 0.387135 8.307574 0.040331 -0.136166 -0.552021 -0.000000 0.000000 0.000000 0.000000 0.000000 0.000000 0.000000 
0.101116 16.344580 -0.851631 147.311310 87.370656 151.408685 -8.572889 0.963930 0.332638 -2.331081 1.418905 -3.466646 -5.372936 1.306277 -1.980133 6.906791 -2.199528 -7.070945 -2.306052 -0.188955 0.138742 0.000000 0.000000 0.000000 -10.865579 13.645175 2.860794 -68.668426 35.846909 7.942695 -4.580043 -9.094949 -0.014044 -0.532621 8.656979 -0.035561 -0.078027 -0.129375 -0.000000 0.000000 0.000000 0.000000 0.000000 0.000000 0.000000 7.014523 4.632557 -0.246651 34.151005 49.270503 3.565033 -0.084439 67.399706 -0.018641 0.082225 8.571136 0.016795 -0.130208 -0.555801 -0.000000 0.000000 0.000000 0.000000 0.000000 0.000000 0.000000 
0.205248 16.298769 -0.903309 145.420257 87.262015 149.259383 -8.463929 0.923812 0.672223 -2.326685 1.377957 -3.422159 -5.471248 1.274697 -2.035450 6.935332 -1.705398 -6.905428 -2.462806 -0.202423 0.173772 0.000000 0.000000 0.000000 -10.956646 13.382405 2.968594 -68.623866 33.725974 8.748781 -4.474085 -8.803044 -0.012441 -0.428936 8.442007 -0.027329 -0.071593 -0.119560 -0.000000 0.000000 0.000000 0.000000 0.000000 0.000000 0.000000 7.581034 5.274150 -0.189815 35.633369 48.599715 3.642004 -0.071957 67.001527 -0.021427 -0.239909 8.915426 -0.009636 -0.124023 -0.560152 -0.000000 0.000000 0.000000 0.000000 0.000000 0.000000 0.000000 
0.307899 16.256518 -0.954931 143.756095 87.126743 147.336563 -8.368390 0.889814 1.008260 -2.327624 1.343873 -3.375003 -5.575615 1.249672 -2.073194 7.003415 -1.224040 -6.745922 -2.630337 -0.216381 0.205520 0.000000 0.000000 0.000000 -10.997070 13.188249 3.072931 -68.511186 31.375628 9.438652 -4.365202 -8.475527 -0.010591 -0.229017 8.109976 -0.012285 -0.065201 -0.108612 -0.000000 0.000000 0.000000 0.000000 0.000000 0.000000 0.000000 8.235808 5.904752 -0.126574 37.094355 47.822251 3.684744 -0.055431 66.591144 -0.024454 -0.583924 9.328950 -0.040467 -0.117375 -0.564667 -0.000000 0.000000 0.000000 0.000000 0.000000 0.000000 0.000000 
0.409472 16.218477 -1.006130 142.386330 86.959213 145.717158 -8.291412 0.864134 1.334108 -2.334582 1.318984 -3.327053 -5.684286 1.233124 -2.095840 7.102768 -0.757296 -6.592972 -2.804210 -0.230452 0.233951 0.000000 0.000000 0.000000 -10.995396 13.059256 3.170718 -68.322923 28.812225 10.036128 -4.255865 -8.139646 -0.008589 0.072975 7.669000 0.008466 -0.058829 -0.096710 -0.000000 0.000000 0.000000 0.000000 0.000000 0.000000 0.000000 8.946990 6.515832 -0.061323 38.577378 46.910407 3.677901 -0.033561 66.166896 -0.027426 -0.922195 9.788079 -0.073594 -0.110609 -0.568679 -0.000000 0.000000 0.000000 0.000000 0.000000 0.000000 0.000000 
0.510250 16.185244 -1.056597 141.370080 86.753377 144.468276 -8.237469 0.848244 1.645528 -2.348295 1.304832 -3.279273 -5.797092 1.226306 -2.104750 7.228749 -0.317793 -6.449320 -2.981329 -0.244343 0.258434 0.000000 0.000000 0.000000 -10.961631 12.985383 3.257657 -68.058527 26.056194 10.553895 -4.148896 -7.825005 -0.006557 0.479668 7.128329 0.033126 -0.052463 -0.084103 -0.000000 0.000000 0.000000 0.000000 0.000000 0.000000 0.000000 9.697568 7.086885 0.002941 40.097219 45.860940 3.616067 -0.006040 65.714287 -0.030262 -1.257877 10.267938 -0.109519 -0.103572 -0.571564 -0.000000 0.000000 0.000000 0.000000 0.000000 0.000000 0.000000 
0.610444 16.157354 -1.106010 140.762422 86.501926 143.650140 -8.210050 0.843389 1.940843 -2.369694 1.302643 -3.232862 -5.916854 1.230167 -2.104762 7.382475 0.070507 -6.314841 -3.161020 -0.258011 0.279203 0.000000 0.000000 0.000000 -10.915452 12.918610 3.327417 -67.723808 23.171460 10.940424 -4.049349 -7.581867 -0.004617 0.992230 6.495730 0.059287 -0.046149 -0.071219 -0.000000 0.000000 0.000000 0.000000 0.000000 0.000000 0.000000 10.494439 7.583895 0.070293 41.632606 44.696858 3.512571 0.027338 65.203720 -0.033098 -1.628479 10.746666 -0.151944 -0.095478 -0.572782 0.000000 0.000000 0.000000 0.000000 0.000000 0.000000 0.000000 
